<?xml version="1.0" standalone="no"?>
<!DOCTYPE svg PUBLIC "-//W3C//DTD SVG 20010904//EN"
 "http://www.w3.org/TR/2001/REC-SVG-20010904/DTD/svg10.dtd">
<svg version="1.0" xmlns="http://www.w3.org/2000/svg"
 width="130.000000pt" height="130.000000pt" viewBox="0 0 130.000000 130.000000"
 preserveAspectRatio="xMidYMid meet">
<metadata>
Created by potrace 1.11, written by Peter Selinger 2001-2013
</metadata>
<g transform="translate(0.000000,130.000000) scale(0.100000,-0.100000)"
fill="#000000" stroke="none">
<path d="M505 1240 c-163 -55 -274 -143 -351 -278 -89 -155 -106 -353 -45
-507 52 -131 145 -242 259 -308 180 -105 383 -110 581 -14 93 45 205 158 254
257 21 41 40 86 43 100 20 103 24 130 24 184 -1 110 -36 220 -103 321 -73 110
-163 181 -292 231 -62 24 -85 28 -195 29 -93 1 -138 -3 -175 -15z m-30 -390
c10 -31 -3 -57 -35 -68 -23 -9 -31 -7 -44 7 -34 37 -23 78 24 93 21 7 47 -8
55 -32z m233 17 c17 -14 15 -62 -5 -78 -33 -28 -83 0 -83 47 0 43 50 60 88 31z
m240 0 c16 -15 20 -36 13 -68 -3 -15 -48 -26 -67 -16 -40 22 -45 56 -13 86 24
22 41 22 67 -2z m-414 -216 c15 -13 23 -8 77 45 l59 58 60 -59 60 -59 27 25
c15 13 42 40 60 59 18 19 33 31 34 25 0 -5 1 -59 2 -120 l1 -110 -244 0 -244
0 1 105 c1 58 2 112 2 119 1 9 19 -3 44 -30 24 -24 51 -50 61 -58z m376 -170
c23 -38 6 -41 -240 -41 -246 0 -259 2 -240 40 11 21 467 22 480 1z"/>
</g>
</svg>
